<?xml version="1.0" encoding="UTF-8"?>
<svg id="Layer_1" data-name="Layer 1" xmlns="http://www.w3.org/2000/svg" viewBox="0 0 736.08 736.08">
  <path d="M464.49,158.35v77.73h83.97v22.79c0,2.22,4.35,4.03,5.76,5.28v40.31c-1.19,1.06-4.39.92-6.02.75-14.54-1.53-27.72-11.33-35.58-23.2-.29-.44-.74-3.21-2.3-3.21h-45.11l-.72.72v146.11c-.61-.26-1.42.48-1.68.48h-40.07l.03-146.54c-.14-.5-2.55-.76-3.13-.79-12.17-.8-25.42.43-37.68.27l-97.41,267.03h-105.33l-.72-.72v-41.51h75.58c1.55,0,3.83-6.94,4.43-8.54,2.8-7.5,5.3-15.97,7.93-23.23,23.12-63.86,47.43-130.08,70.85-194.6,4.39-12.09,8.08-24.15,12.95-36,.69-1.68,1.36-3.65,1.96-5.38h70.06l.48-78.21h40.07c.26,0,1.07.74,1.68.48ZM450.57,250h-14.16l-.72.72v14.16h14.88v-14.88Z"/>
  <path d="M578.47,331.32c20.65,11.33,30.14,43.71,17.82,64.4-14.21,23.85-46.94,33.6-70.49,15.35-47.41-36.74-.85-109.1,52.68-79.75ZM557.38,368.26c-2.69-1.93-6.21-1.83-7.93,1.11-1.48,2.52-1.56,5.18.7,7.3,5.76,5.4,13.29-4.06,7.23-8.41Z"/>
</svg>